<svg width="70.499695" height="70.499695" viewBox="0 0 70.4997 70.4997" fill="none" xmlns="http://www.w3.org/2000/svg" xmlns:xlink="http://www.w3.org/1999/xlink">
	<desc>
			Created with Pixso.
	</desc>
	<defs>
		<filter id="filter_2_254_dd" x="0.000000" y="0.000000" width="70.499695" height="70.499695" filterUnits="userSpaceOnUse" color-interpolation-filters="sRGB">
			<feFlood flood-opacity="0" result="BackgroundImageFix"/>
			<feGaussianBlur in="BackgroundImage" stdDeviation="3.33333"/>
			<feComposite in2="SourceAlpha" operator="in" result="effect_backgroundBlur_1"/>
			<feBlend mode="normal" in="SourceGraphic" in2="effect_backgroundBlur_1" result="shape"/>
		</filter>
		<clipPath id="clip2_254">
			<rect id="rocket" width="49.850830" height="49.850830" transform="translate(0.000000 35.249847) rotate(-45.000000)" fill="white" fill-opacity="0"/>
		</clipPath>
	</defs>
	<g filter="url(#filter_2_254_dd)">
		<g clip-path="url(#clip2_254)">
			<path id="path" d="M35.86 2.01C35.48 1.78 35.01 1.78 34.65 2.01C31.28 4.06 30.46 4.78 28.09 7.15C23.36 11.88 22.36 19.06 22.73 25.73L13.95 34.51C13.17 35.29 12.86 36.43 13.15 37.5L16.82 51.45C17.43 53.77 20.33 54.56 22.03 52.87L27.72 47.17C28.44 49.08 29.04 50.46 29.51 51.52C29.7 51.94 30.12 52.23 30.58 52.22L39.9 52.22C40.37 52.22 40.78 51.94 40.97 51.52C41.44 50.46 42.03 49.08 42.76 47.17L48.46 52.87C50.16 54.57 53.06 53.79 53.67 51.46L57.34 37.51C57.62 36.44 57.31 35.29 56.53 34.51L47.75 25.73C48.13 19.07 47.12 11.88 42.4 7.16C40.03 4.78 39.2 4.05 35.86 2.01ZM19.82 50.66L16.16 36.71L23.12 29.75C23.81 34.92 25.16 39.86 26.55 43.94L19.82 50.66ZM50.67 50.66L43.94 43.94C45.33 39.86 46.69 34.93 47.38 29.75L54.34 36.71L50.67 50.66ZM38.63 49.11L31.87 49.11C27.09 37.88 21.74 17.91 30.3 9.35C32 7.65 32.86 6.78 35.25 5.29C37.63 6.79 38.49 7.65 40.2 9.36C48.76 17.91 43.4 37.9 38.63 49.11ZM31.39 15.97C29.26 18.09 29.26 21.55 31.39 23.68C33.52 25.8 36.97 25.8 39.1 23.68C41.23 21.55 41.23 18.09 39.1 15.97C36.97 13.84 33.52 13.84 31.39 15.97ZM36.9 21.47C35.99 22.38 34.5 22.38 33.59 21.47C32.68 20.56 32.68 19.08 33.59 18.17C34.5 17.26 35.99 17.26 36.9 18.17C37.81 19.08 37.81 20.56 36.9 21.47Z" fill="#FFFFFF" fill-opacity="1.000000" fill-rule="nonzero"/>
		</g>
	</g>
</svg>
